<?xml version="1.0" encoding="UTF-8" standalone="no"?>
<!DOCTYPE svg PUBLIC "-//W3C//DTD SVG 1.1//EN"
 "http://www.w3.org/Graphics/SVG/1.1/DTD/svg11.dtd">
<!-- Generated by graphviz version 5.0.0 (20220707.1540)
 -->
<!-- Title: dependencies Pages: 1 -->
<svg width="1016pt" height="247pt"
 viewBox="0.00 0.00 1016.00 246.80" xmlns="http://www.w3.org/2000/svg" xmlns:xlink="http://www.w3.org/1999/xlink">
<g id="graph0" class="graph" transform="scale(1 1) rotate(0) translate(4 242.8)">
<title>dependencies</title>
<polygon fill="white" stroke="transparent" points="-4,4 -4,-242.8 1012,-242.8 1012,4 -4,4"/>
<text text-anchor="middle" x="504" y="-8.2" font-family="sans-serif" font-size="14.00">dependencies</text>
<g id="clust1" class="cluster">
<title>cluster_UiModule</title>
<polygon fill="none" stroke="black" stroke-dasharray="1,5" points="8,-32.8 8,-230.8 1000,-230.8 1000,-32.8 8,-32.8"/>
</g>
<g id="clust2" class="cluster">
<title>cluster_UiModule_declarations</title>
<polygon fill="none" stroke="black" points="146,-40.8 146,-92.8 992,-92.8 992,-40.8 146,-40.8"/>
</g>
<g id="clust9" class="cluster">
<title>cluster_UiModule_exports</title>
<polygon fill="none" stroke="black" points="72,-170.8 72,-222.8 936,-222.8 936,-170.8 72,-170.8"/>
</g>
<g id="clust8" class="cluster">
<title>cluster_UiModule_imports</title>
<polygon fill="none" stroke="black" points="16,-40.8 16,-92.8 138,-92.8 138,-40.8 16,-40.8"/>
</g>
<!-- UiBtnComponent -->
<g id="node1" class="node">
<title>UiBtnComponent</title>
<polygon fill="#ffffb3" stroke="black" points="983.56,-84.8 868.44,-84.8 868.44,-48.8 983.56,-48.8 983.56,-84.8"/>
<text text-anchor="middle" x="926" y="-62.6" font-family="Times,serif" font-size="14.00">UiBtnComponent</text>
</g>
<!-- UiModule -->
<g id="node6" class="node">
<title>UiModule</title>
<polygon fill="#8dd3c7" stroke="black" points="578.55,-149.8 575.55,-153.8 554.55,-153.8 551.55,-149.8 505.45,-149.8 505.45,-113.8 578.55,-113.8 578.55,-149.8"/>
<text text-anchor="middle" x="542" y="-127.6" font-family="Times,serif" font-size="14.00">UiModule</text>
</g>
<!-- UiBtnComponent&#45;&gt;UiModule -->
<g id="edge1" class="edge">
<title>UiBtnComponent&#45;&gt;UiModule</title>
<path fill="none" stroke="black" d="M897.88,-85.07C897.88,-103.36 897.88,-128.8 897.88,-128.8 897.88,-128.8 588.74,-128.8 588.74,-128.8"/>
<polygon fill="black" stroke="black" points="588.74,-125.3 578.74,-128.8 588.74,-132.3 588.74,-125.3"/>
</g>
<!-- UiBtnIconComponent -->
<g id="node2" class="node">
<title>UiBtnIconComponent</title>
<polygon fill="#ffffb3" stroke="black" points="850.44,-84.8 709.56,-84.8 709.56,-48.8 850.44,-48.8 850.44,-84.8"/>
<text text-anchor="middle" x="780" y="-62.6" font-family="Times,serif" font-size="14.00">UiBtnIconComponent</text>
</g>
<!-- UiBtnIconComponent&#45;&gt;UiModule -->
<g id="edge2" class="edge">
<title>UiBtnIconComponent&#45;&gt;UiModule</title>
<path fill="none" stroke="black" d="M750.38,-84.81C750.38,-100.85 750.38,-121.8 750.38,-121.8 750.38,-121.8 588.77,-121.8 588.77,-121.8"/>
<polygon fill="black" stroke="black" points="588.77,-118.3 578.77,-121.8 588.77,-125.3 588.77,-118.3"/>
</g>
<!-- UiDialogCreateComponent -->
<g id="node3" class="node">
<title>UiDialogCreateComponent</title>
<polygon fill="#ffffb3" stroke="black" points="691.97,-84.8 522.03,-84.8 522.03,-48.8 691.97,-48.8 691.97,-84.8"/>
<text text-anchor="middle" x="607" y="-62.6" font-family="Times,serif" font-size="14.00">UiDialogCreateComponent</text>
</g>
<!-- UiDialogCreateComponent&#45;&gt;UiModule -->
<g id="edge3" class="edge">
<title>UiDialogCreateComponent&#45;&gt;UiModule</title>
<path fill="none" stroke="black" d="M550.4,-84.91C550.4,-84.91 550.4,-103.79 550.4,-103.79"/>
<polygon fill="black" stroke="black" points="546.9,-103.79 550.4,-113.79 553.9,-103.79 546.9,-103.79"/>
</g>
<!-- UiLayoutDefaultComponent -->
<g id="node4" class="node">
<title>UiLayoutDefaultComponent</title>
<polygon fill="#ffffb3" stroke="black" points="504.47,-84.8 327.53,-84.8 327.53,-48.8 504.47,-48.8 504.47,-84.8"/>
<text text-anchor="middle" x="416" y="-62.6" font-family="Times,serif" font-size="14.00">UiLayoutDefaultComponent</text>
</g>
<!-- UiLayoutDefaultComponent&#45;&gt;UiModule -->
<g id="edge4" class="edge">
<title>UiLayoutDefaultComponent&#45;&gt;UiModule</title>
<path fill="none" stroke="black" d="M504.61,-66.8C510.19,-66.8 513.62,-66.8 513.62,-66.8 513.62,-66.8 513.62,-103.69 513.62,-103.69"/>
<polygon fill="black" stroke="black" points="510.12,-103.69 513.62,-113.69 517.12,-103.69 510.12,-103.69"/>
</g>
<!-- UiPaginationComponent -->
<g id="node5" class="node">
<title>UiPaginationComponent</title>
<polygon fill="#ffffb3" stroke="black" points="309.71,-84.8 154.29,-84.8 154.29,-48.8 309.71,-48.8 309.71,-84.8"/>
<text text-anchor="middle" x="232" y="-62.6" font-family="Times,serif" font-size="14.00">UiPaginationComponent</text>
</g>
<!-- UiPaginationComponent&#45;&gt;UiModule -->
<g id="edge5" class="edge">
<title>UiPaginationComponent&#45;&gt;UiModule</title>
<path fill="none" stroke="black" d="M283.19,-84.81C283.19,-100.85 283.19,-121.8 283.19,-121.8 283.19,-121.8 495.19,-121.8 495.19,-121.8"/>
<polygon fill="black" stroke="black" points="495.19,-125.3 505.19,-121.8 495.19,-118.3 495.19,-125.3"/>
</g>
<!-- UiBtnComponent  -->
<g id="node8" class="node">
<title>UiBtnComponent </title>
<polygon fill="#fb8072" stroke="black" points="927.56,-214.8 808.44,-214.8 808.44,-178.8 927.56,-178.8 927.56,-214.8"/>
<text text-anchor="middle" x="868" y="-192.6" font-family="Times,serif" font-size="14.00">UiBtnComponent </text>
</g>
<!-- UiModule&#45;&gt;UiBtnComponent  -->
<g id="edge7" class="edge">
<title>UiModule&#45;&gt;UiBtnComponent </title>
<path fill="none" stroke="black" stroke-dasharray="5,2" d="M578.68,-135.8C656.15,-135.8 829.34,-135.8 829.34,-135.8 829.34,-135.8 829.34,-168.5 829.34,-168.5"/>
<polygon fill="black" stroke="black" points="825.84,-168.5 829.34,-178.5 832.84,-168.5 825.84,-168.5"/>
</g>
<!-- UiBtnIconComponent  -->
<g id="node9" class="node">
<title>UiBtnIconComponent </title>
<polygon fill="#fb8072" stroke="black" points="790.93,-214.8 647.07,-214.8 647.07,-178.8 790.93,-178.8 790.93,-214.8"/>
<text text-anchor="middle" x="719" y="-192.6" font-family="Times,serif" font-size="14.00">UiBtnIconComponent </text>
</g>
<!-- UiModule&#45;&gt;UiBtnIconComponent  -->
<g id="edge8" class="edge">
<title>UiModule&#45;&gt;UiBtnIconComponent </title>
<path fill="none" stroke="black" stroke-dasharray="5,2" d="M578.88,-142.8C616.54,-142.8 669.51,-142.8 669.51,-142.8 669.51,-142.8 669.51,-168.52 669.51,-168.52"/>
<polygon fill="black" stroke="black" points="666.01,-168.52 669.51,-178.52 673.01,-168.52 666.01,-168.52"/>
</g>
<!-- UiDialogCreateComponent  -->
<g id="node10" class="node">
<title>UiDialogCreateComponent </title>
<polygon fill="#fb8072" stroke="black" points="628.97,-214.8 455.03,-214.8 455.03,-178.8 628.97,-178.8 628.97,-214.8"/>
<text text-anchor="middle" x="542" y="-192.6" font-family="Times,serif" font-size="14.00">UiDialogCreateComponent </text>
</g>
<!-- UiModule&#45;&gt;UiDialogCreateComponent  -->
<g id="edge9" class="edge">
<title>UiModule&#45;&gt;UiDialogCreateComponent </title>
<path fill="none" stroke="black" stroke-dasharray="5,2" d="M542,-149.91C542,-149.91 542,-168.79 542,-168.79"/>
<polygon fill="black" stroke="black" points="538.5,-168.79 542,-178.79 545.5,-168.79 538.5,-168.79"/>
</g>
<!-- UiLayoutDefaultComponent  -->
<g id="node11" class="node">
<title>UiLayoutDefaultComponent </title>
<polygon fill="#fb8072" stroke="black" points="437.47,-214.8 256.53,-214.8 256.53,-178.8 437.47,-178.8 437.47,-214.8"/>
<text text-anchor="middle" x="347" y="-192.6" font-family="Times,serif" font-size="14.00">UiLayoutDefaultComponent </text>
</g>
<!-- UiModule&#45;&gt;UiLayoutDefaultComponent  -->
<g id="edge10" class="edge">
<title>UiModule&#45;&gt;UiLayoutDefaultComponent </title>
<path fill="none" stroke="black" stroke-dasharray="5,2" d="M505.38,-142.8C458.25,-142.8 382.38,-142.8 382.38,-142.8 382.38,-142.8 382.38,-168.52 382.38,-168.52"/>
<polygon fill="black" stroke="black" points="378.88,-168.52 382.38,-178.52 385.88,-168.52 378.88,-168.52"/>
</g>
<!-- UiPaginationComponent  -->
<g id="node12" class="node">
<title>UiPaginationComponent </title>
<polygon fill="#fb8072" stroke="black" points="238.21,-214.8 79.79,-214.8 79.79,-178.8 238.21,-178.8 238.21,-214.8"/>
<text text-anchor="middle" x="159" y="-192.6" font-family="Times,serif" font-size="14.00">UiPaginationComponent </text>
</g>
<!-- UiModule&#45;&gt;UiPaginationComponent  -->
<g id="edge11" class="edge">
<title>UiModule&#45;&gt;UiPaginationComponent </title>
<path fill="none" stroke="black" stroke-dasharray="5,2" d="M505.34,-135.8C416.39,-135.8 196.38,-135.8 196.38,-135.8 196.38,-135.8 196.38,-168.5 196.38,-168.5"/>
<polygon fill="black" stroke="black" points="192.88,-168.5 196.38,-178.5 199.88,-168.5 192.88,-168.5"/>
</g>
<!-- ObjectKeysPipe -->
<g id="node7" class="node">
<title>ObjectKeysPipe</title>
<polygon fill="#8dd3c7" stroke="black" points="130.48,-84.8 127.48,-88.8 106.48,-88.8 103.48,-84.8 23.52,-84.8 23.52,-48.8 130.48,-48.8 130.48,-84.8"/>
<text text-anchor="middle" x="77" y="-62.6" font-family="Times,serif" font-size="14.00">ObjectKeysPipe</text>
</g>
<!-- ObjectKeysPipe&#45;&gt;UiModule -->
<g id="edge6" class="edge">
<title>ObjectKeysPipe&#45;&gt;UiModule</title>
<path fill="none" stroke="black" d="M105.07,-85.07C105.07,-103.36 105.07,-128.8 105.07,-128.8 105.07,-128.8 495.12,-128.8 495.12,-128.8"/>
<polygon fill="black" stroke="black" points="495.12,-132.3 505.12,-128.8 495.12,-125.3 495.12,-132.3"/>
</g>
</g>
</svg>
